<?xml version="1.0" encoding="UTF-8" standalone="no"?>
<svg
   viewBox="0,0,400,400"
   width="400"
   height="400"
   style="display: inline-block; background: rgb(250, 250, 250);"
   version="1.1"
   id="svg10"
   sodipodi:docname="sierpinski.svg"
   inkscape:version="1.1.1 (1:1.1+202109281949+c3084ef5ed)"
   xmlns:inkscape="http://www.inkscape.org/namespaces/inkscape"
   xmlns:sodipodi="http://sodipodi.sourceforge.net/DTD/sodipodi-0.dtd"
   xmlns="http://www.w3.org/2000/svg"
   xmlns:svg="http://www.w3.org/2000/svg">
  <defs
     id="defs14" />
  <sodipodi:namedview
     id="namedview12"
     pagecolor="#ffffff"
     bordercolor="#666666"
     borderopacity="1.0"
     inkscape:pageshadow="2"
     inkscape:pageopacity="0.0"
     inkscape:pagecheckerboard="0"
     showgrid="false"
     inkscape:zoom="8.33"
     inkscape:cx="228.57143"
     inkscape:cy="213.02521"
     inkscape:window-width="1920"
     inkscape:window-height="1048"
     inkscape:window-x="1920"
     inkscape:window-y="0"
     inkscape:window-maximized="1"
     inkscape:current-layer="svg10" />
  <g
     class="poly"
     fill="#f6f6f6"
     stroke="black"
     stroke-width="1"
     stroke-dasharray="3 3"
     id="g4" />
  <g
     class="line"
     fill="none"
     stroke="black"
     stroke-width="1"
     stroke-linejoin="round"
     stroke-linecap="round"
     id="g8">
    <path
       d="M10,365.19010054931454L12.980392156862745,365.19010054931454L14.470588235294118,362.6090052282315L12.980392156862745,360.02790990714846L14.47058823529412,357.4468145860654L17.450980392156865,357.4468145860654L18.941176470588236,360.02790990714846L17.450980392156865,362.6090052282315L18.94117647058824,365.19010054931454L21.92156862745098,365.19010054931454L23.411764705882355,362.6090052282315L26.392156862745104,362.6090052282315L27.88235294117647,365.19010054931454L30.86274509803922,365.19010054931454L32.352941176470594,362.6090052282315L30.86274509803922,360.02790990714846L27.88235294117647,360.02790990714846L26.392156862745104,357.4468145860654L27.88235294117647,354.8657192649824L26.392156862745104,352.28462394389936L23.411764705882355,352.28462394389936L21.92156862745098,354.8657192649824L18.941176470588232,354.8657192649824L17.45098039215686,352.28462394389936L18.941176470588232,349.70352862281635L21.92156862745098,349.70352862281635L23.41176470588235,347.1224333017333L21.92156862745098,344.54133798065027L23.41176470588235,341.9602426595672L26.392156862745097,341.9602426595672L27.88235294117647,344.54133798065027L30.862745098039213,344.54133798065027L32.35294117647059,341.9602426595672L30.862745098039213,339.3791473384842L27.88235294117647,339.3791473384842L26.392156862745097,336.7980520174011L27.88235294117647,334.2169566963181L30.862745098039213,334.2169566963181L32.35294117647059,331.63586137523504L30.862745098039213,329.054766054152L32.35294117647059,326.47367073306907L35.333333333333336,326.47367073306907L36.8235294117647,329.054766054152L35.333333333333336,331.63586137523504L36.8235294117647,334.2169566963181L39.80392156862745,334.2169566963181L41.294117647058826,336.7980520174011L39.80392156862745,339.3791473384842L36.8235294117647,339.3791473384842L35.333333333333336,341.9602426595672L36.8235294117647,344.54133798065027L39.80392156862745,344.54133798065027L41.294117647058826,341.9602426595672L44.274509803921575,341.9602426595672L45.76470588235294,344.54133798065027L44.274509803921575,347.1224333017333L45.76470588235294,349.70352862281635L48.74509803921569,349.70352862281635L50.23529411764706,352.28462394389936L48.74509803921569,354.8657192649824L45.76470588235294,354.8657192649824L44.274509803921575,352.28462394389936L41.294117647058826,352.28462394389936L39.80392156862745,354.8657192649824L41.294117647058826,357.4468145860654L39.80392156862745,360.02790990714846L36.8235294117647,360.02790990714846L35.333333333333336,362.6090052282315L36.8235294117647,365.19010054931454L39.80392156862745,365.19010054931454L41.294117647058826,362.6090052282315L44.274509803921575,362.6090052282315L45.76470588235294,365.19010054931454L48.74509803921569,365.19010054931454L50.23529411764706,362.6090052282315L48.74509803921569,360.02790990714846L50.23529411764706,357.4468145860654L53.21568627450981,357.4468145860654L54.705882352941174,360.02790990714846L53.21568627450981,362.6090052282315L54.705882352941174,365.19010054931454L57.68627450980392,365.19010054931454L59.176470588235304,362.6090052282315L62.15686274509804,362.6090052282315L63.647058823529406,365.19010054931454L66.62745098039215,365.19010054931454L68.11764705882354,362.6090052282315L66.62745098039215,360.02790990714846L63.647058823529406,360.02790990714846L62.15686274509804,357.4468145860654L63.647058823529406,354.8657192649824L66.62745098039215,354.8657192649824L68.11764705882354,352.28462394389936L66.62745098039215,349.70352862281635L68.11764705882354,347.1224333017333L71.09803921568628,347.1224333017333L72.58823529411765,349.70352862281635L71.09803921568628,352.28462394389936L72.58823529411765,354.8657192649824L75.56862745098039,354.8657192649824L77.05882352941177,357.4468145860654L75.56862745098039,360.02790990714846L72.58823529411765,360.02790990714846L71.09803921568628,362.6090052282315L72.58823529411765,365.19010054931454L75.56862745098039,365.19010054931454L77.05882352941177,362.6090052282315L80.03921568627452,362.6090052282315L81.52941176470588,365.19010054931454L84.50980392156862,365.19010054931454L86,362.6090052282315L84.50980392156862,360.02790990714846L86,357.4468145860654L88.98039215686275,357.4468145860654L90.47058823529412,360.02790990714846L88.98039215686275,362.6090052282315L90.47058823529412,365.19010054931454L93.45098039215685,365.19010054931454L94.94117647058825,362.6090052282315L97.92156862745098,362.6090052282315L99.41176470588235,365.19010054931454L102.3921568627451,365.19010054931454L103.88235294117648,362.6090052282315L102.3921568627451,360.02790990714846L99.41176470588235,360.02790990714846L97.92156862745098,357.4468145860654L99.41176470588235,354.8657192649824L97.92156862745098,352.28462394389936L94.94117647058825,352.28462394389936L93.45098039215685,354.8657192649824L90.47058823529412,354.8657192649824L88.98039215686275,352.28462394389936L90.47058823529412,349.70352862281635L93.45098039215685,349.70352862281635L94.94117647058825,347.1224333017333L93.45098039215685,344.54133798065027L90.47058823529412,344.54133798065027L88.98039215686275,341.9602426595672L90.47058823529412,339.3791473384842L88.98039215686275,336.7980520174011L86,336.7980520174011L84.50980392156862,339.37914733848413L86,341.9602426595672L84.50980392156862,344.54133798065027L81.52941176470588,344.54133798065027L80.03921568627452,341.9602426595672L77.05882352941177,341.9602426595672L75.56862745098039,344.54133798065027L72.58823529411765,344.54133798065027L71.09803921568628,341.9602426595672L72.58823529411765,339.37914733848413L75.56862745098039,339.37914733848413L77.05882352941177,336.7980520174011L75.56862745098039,334.2169566963181L77.05882352941177,331.63586137523504L80.03921568627452,331.63586137523504L81.52941176470588,334.2169566963181L84.50980392156862,334.2169566963181L86,331.63586137523504L84.50980392156862,329.054766054152L81.52941176470588,329.054766054152L80.03921568627452,326.473670733069L81.52941176470588,323.89257541198594L80.03921568627452,321.31148009090293L77.05882352941177,321.31148009090293L75.56862745098039,323.89257541198594L72.58823529411765,323.89257541198594L71.09803921568628,321.31148009090293L72.58823529411765,318.73038476981986L75.56862745098039,318.73038476981986L77.05882352941177,316.1492894487369L75.56862745098039,313.56819412765384L72.58823529411765,313.56819412765384L71.09803921568628,310.9870988065708L72.58823529411765,308.40600348548776L71.09803921568628,305.82490816440475L68.11764705882354,305.82490816440475L66.62745098039215,308.40600348548776L68.11764705882354,310.9870988065708L66.62745098039215,313.56819412765384L63.647058823529406,313.56819412765384L62.15686274509804,316.1492894487369L63.647058823529406,318.73038476981986L66.62745098039215,318.73038476981986L68.11764705882354,321.31148009090293L66.62745098039215,323.89257541198594L63.647058823529406,323.89257541198594L62.15686274509804,321.31148009090293L59.176470588235304,321.31148009090293L57.68627450980392,323.89257541198594L54.705882352941174,323.89257541198594L53.21568627450981,321.31148009090293L54.705882352941174,318.73038476981986L53.21568627450981,316.1492894487369L50.23529411764706,316.1492894487369L48.74509803921569,318.73038476981986L50.23529411764706,321.31148009090293L48.74509803921569,323.89257541198594L45.76470588235294,323.89257541198594L44.274509803921575,321.31148009090293L41.294117647058826,321.31148009090293L39.80392156862745,323.89257541198594L36.8235294117647,323.89257541198594L35.333333333333336,321.31148009090293L36.8235294117647,318.73038476981986L39.80392156862745,318.73038476981986L41.294117647058826,316.1492894487369L39.80392156862745,313.5681941276538L41.294117647058826,310.98709880657077L44.274509803921575,310.98709880657077L45.76470588235294,313.5681941276538L48.74509803921569,313.5681941276538L50.23529411764706,310.98709880657077L48.74509803921569,308.40600348548776L45.76470588235294,308.40600348548776L44.274509803921575,305.8249081644047L45.76470588235294,303.2438128433216L48.74509803921569,303.2438128433216L50.23529411764706,300.66271752223867L48.74509803921569,298.0816222011556L50.23529411764706,295.5005268800726L53.21568627450981,295.5005268800726L54.705882352941174,298.0816222011556L53.21568627450981,300.66271752223867L54.705882352941174,303.2438128433216L57.68627450980392,303.2438128433216L59.176470588235304,300.66271752223867L62.15686274509804,300.66271752223867L63.647058823529406,303.2438128433216L66.62745098039215,303.2438128433216L68.11764705882354,300.66271752223867L66.62745098039215,298.0816222011556L63.647058823529406,298.0816222011556L62.15686274509804,295.5005268800726L63.647058823529406,292.9194315589896L62.15686274509804,290.3383362379065L59.176470588235304,290.3383362379065L57.68627450980392,292.9194315589896L54.705882352941174,292.9194315589896L53.21568627450979,290.3383362379065L54.705882352941174,287.7572409168235L57.68627450980392,287.7572409168235L59.176470588235304,285.1761455957404L57.68627450980392,282.5950502746574L59.176470588235304,280.0139549535744L62.15686274509804,280.0139549535744L63.647058823529406,282.5950502746574L66.62745098039215,282.5950502746574L68.11764705882354,280.0139549535744L66.62745098039215,277.4328596324914L63.647058823529406,277.4328596324914L62.15686274509804,274.85176431140826L63.647058823529406,272.2706689903253L66.62745098039215,272.2706689903253L68.11764705882354,269.68957366924224L66.62745098039215,267.1084783481592L68.11764705882354,264.52738302707616L71.09803921568628,264.52738302707616L72.58823529411765,267.1084783481592L71.09803921568628,269.68957366924224L72.58823529411765,272.2706689903253L75.56862745098039,272.2706689903253L77.05882352941177,274.85176431140826L75.56862745098039,277.4328596324914L72.58823529411765,277.4328596324914L71.09803921568628,280.0139549535744L72.58823529411765,282.5950502746574L75.56862745098039,282.5950502746574L77.05882352941177,280.0139549535744L80.03921568627452,280.0139549535744L81.52941176470588,282.5950502746574L84.50980392156862,282.5950502746574L86,280.0139549535744L84.50980392156862,277.4328596324914L86,274.85176431140826L88.98039215686275,274.85176431140826L90.47058823529412,277.4328596324914L88.98039215686275,280.0139549535744L90.47058823529412,282.5950502746574L93.45098039215685,282.5950502746574L94.94117647058825,280.0139549535744L97.92156862745098,280.0139549535744L99.41176470588235,282.5950502746574L102.3921568627451,282.5950502746574L103.88235294117648,280.0139549535744L102.3921568627451,277.4328596324914L99.41176470588235,277.4328596324914L97.92156862745098,274.85176431140826L99.41176470588235,272.2706689903253L97.92156862745098,269.68957366924224L94.94117647058825,269.68957366924224L93.45098039215685,272.2706689903253L90.47058823529412,272.2706689903253L88.98039215686275,269.68957366924224L90.47058823529412,267.1084783481592L93.45098039215685,267.1084783481592L94.94117647058825,264.5273830270761L93.45098039215685,261.94628770599314L90.47058823529412,261.94628770599314L88.98039215686275,259.36519238491013L90.47058823529412,256.78409706382706L88.98039215686275,254.203001742744L86,254.203001742744L84.50980392156862,256.78409706382706L86,259.36519238491013L84.50980392156862,261.94628770599314L81.52941176470588,261.94628770599314L80.03921568627452,259.36519238491013L77.05882352941177,259.36519238491013L75.56862745098039,261.94628770599314L72.58823529411765,261.94628770599314L71.09803921568628,259.36519238491013L72.58823529411765,256.78409706382706L75.56862745098039,256.78409706382706L77.05882352941177,254.203001742744L75.56862745098039,251.62190642166095L77.05882352941177,249.0408111005779L80.03921568627452,249.0408111005779L81.52941176470588,251.62190642166095L84.50980392156862,251.62190642166095L86,249.0408111005779L84.50980392156862,246.45971577949484L81.52941176470588,246.45971577949484L80.03921568627452,243.87862045841183L81.52941176470588,241.29752513732882L84.50980392156862,241.29752513732882L86,238.71642981624578L84.50980392156862,236.13533449516274L86,233.55423917407967L88.98039215686275,233.55423917407967L90.47058823529412,236.13533449516274L88.98039215686275,238.71642981624578L90.47058823529412,241.29752513732882L93.45098039215685,241.29752513732882L94.94117647058825,238.71642981624578L97.92156862745098,238.71642981624578L99.41176470588235,241.29752513732882L102.3921568627451,241.29752513732882L103.88235294117648,238.71642981624578L102.3921568627451,236.13533449516274L99.41176470588235,236.13533449516274L97.92156862745098,233.55423917407967L99.41176470588235,230.97314385299663L97.92156862745098,228.3920485319136L94.94117647058825,228.3920485319136L93.45098039215685,230.97314385299663L90.47058823529412,230.97314385299663L88.98039215686275,228.3920485319136L90.47058823529412,225.81095321083058L93.45098039215685,225.81095321083058L94.94117647058825,223.22985788974748L93.45098039215685,220.64876256866447L94.94117647058825,218.06766724758145L97.92156862745098,218.06766724758145L99.41176470588235,220.64876256866447L102.3921568627451,220.64876256866447L103.88235294117648,218.06766724758145L102.3921568627451,215.48657192649839L99.41176470588235,215.48657192649839L97.92156862745098,212.90547660541534L99.41176470588235,210.3243812843323L102.3921568627451,210.3243812843323L103.88235294117648,207.74328596324932L102.3921568627451,205.16219064216625L103.88235294117648,202.58109532108315L106.86274509803921,202.58109532108315L108.3529411764706,205.16219064216625L106.86274509803921,207.74328596324932L108.3529411764706,210.3243812843323L111.33333333333333,210.3243812843323L112.8235294117647,212.90547660541534L111.33333333333333,215.48657192649839L108.3529411764706,215.48657192649839L106.86274509803921,218.06766724758145L108.3529411764706,220.64876256866447L111.33333333333333,220.64876256866447L112.8235294117647,218.06766724758145L115.80392156862746,218.06766724758145L117.29411764705881,220.64876256866447L115.80392156862746,223.22985788974748L117.29411764705881,225.81095321083058L120.27450980392157,225.81095321083058L121.76470588235294,228.3920485319136L120.27450980392157,230.97314385299663L117.29411764705881,230.97314385299663L115.80392156862746,228.3920485319136L112.8235294117647,228.3920485319136L111.33333333333333,230.97314385299663L112.8235294117647,233.55423917407967L111.33333333333333,236.13533449516274L108.3529411764706,236.13533449516274L106.86274509803921,238.71642981624578L108.3529411764706,241.29752513732882L111.33333333333333,241.29752513732882L112.8235294117647,238.71642981624578L115.80392156862746,238.71642981624578L117.29411764705881,241.29752513732882L120.27450980392157,241.29752513732882L121.76470588235294,238.71642981624578L120.27450980392157,236.13533449516274L121.76470588235294,233.55423917407967L124.74509803921568,233.55423917407967L126.23529411764706,236.13533449516274L124.74509803921568,238.71642981624578L126.23529411764706,241.29752513732882L129.2156862745098,241.29752513732882L130.70588235294116,243.87862045841183L129.2156862745098,246.45971577949484L126.23529411764706,246.45971577949484L124.74509803921568,249.0408111005779L126.23529411764706,251.62190642166095L129.2156862745098,251.62190642166095L130.70588235294116,249.0408111005779L133.68627450980392,249.0408111005779L135.1764705882353,251.62190642166095L133.68627450980392,254.203001742744L135.1764705882353,256.78409706382706L138.15686274509804,256.78409706382706L139.64705882352942,259.36519238491013L138.15686274509804,261.94628770599314L135.1764705882353,261.94628770599314L133.68627450980392,259.36519238491013L130.70588235294116,259.36519238491013L129.2156862745098,261.94628770599314L126.23529411764706,261.94628770599314L124.74509803921568,259.36519238491013L126.23529411764706,256.78409706382706L124.74509803921568,254.203001742744L121.76470588235294,254.203001742744L120.27450980392157,256.78409706382706L121.76470588235294,259.36519238491013L120.27450980392157,261.94628770599314L117.29411764705881,261.94628770599314L115.80392156862746,264.5273830270761L117.29411764705881,267.1084783481592L120.27450980392157,267.1084783481592L121.76470588235294,269.68957366924224L120.27450980392157,272.2706689903253L117.29411764705881,272.2706689903253L115.80392156862746,269.68957366924224L112.8235294117647,269.68957366924224L111.33333333333333,272.2706689903253L112.8235294117647,274.85176431140826L111.33333333333333,277.43285963249133L108.3529411764706,277.43285963249133L106.86274509803921,280.01395495357434L108.3529411764706,282.5950502746574L111.33333333333333,282.5950502746574L112.8235294117647,280.0139549535744L115.80392156862746,280.0139549535744L117.29411764705881,282.5950502746574L120.27450980392157,282.5950502746574L121.76470588235294,280.0139549535744L120.27450980392157,277.43285963249133L121.76470588235294,274.85176431140826L124.74509803921568,274.85176431140826L126.23529411764706,277.4328596324914L124.74509803921568,280.0139549535744L126.23529411764706,282.5950502746574L129.2156862745098,282.5950502746574L130.70588235294116,280.0139549535744L133.68627450980392,280.0139549535744L135.1764705882353,282.5950502746574L138.15686274509804,282.5950502746574L139.64705882352942,280.0139549535744L138.15686274509804,277.43285963249133L135.1764705882353,277.43285963249133L133.68627450980392,274.85176431140826L135.1764705882353,272.27066899032525L138.15686274509804,272.27066899032525L139.64705882352942,269.6895736692422L138.15686274509804,267.1084783481592L139.64705882352942,264.5273830270761L142.62745098039215,264.5273830270761L144.11764705882354,267.1084783481592L142.62745098039215,269.6895736692422L144.11764705882354,272.27066899032525L147.0980392156863,272.27066899032525L148.58823529411762,274.85176431140826L147.0980392156863,277.43285963249133L144.11764705882354,277.43285963249133L142.62745098039215,280.01395495357434L144.11764705882354,282.5950502746574L147.0980392156863,282.5950502746574L148.58823529411762,280.0139549535744L151.56862745098042,280.0139549535744L153.05882352941177,282.5950502746574L151.56862745098042,285.1761455957404L153.05882352941177,287.75724091682343L156.03921568627453,287.75724091682343L157.52941176470588,290.3383362379065L156.03921568627453,292.9194315589895L153.05882352941177,292.9194315589895L151.56862745098042,290.3383362379065L148.58823529411762,290.3383362379065L147.0980392156863,292.9194315589895L148.58823529411762,295.5005268800725L147.0980392156863,298.0816222011556L144.11764705882354,298.0816222011556L142.62745098039215,300.6627175222386L144.11764705882354,303.2438128433216L147.0980392156863,303.2438128433216L148.58823529411762,300.6627175222386L151.56862745098042,300.6627175222386L153.05882352941177,303.2438128433216L156.03921568627453,303.2438128433216L157.52941176470588,300.6627175222386L156.03921568627453,298.0816222011556L157.52941176470588,295.5005268800725L160.50980392156862,295.5005268800725L162,298.0816222011556L160.50980392156862,300.6627175222386L162,303.2438128433216L164.98039215686276,303.2438128433216L166.47058823529412,305.8249081644047L164.98039215686276,308.4060034854877L162,308.4060034854877L160.50980392156862,310.9870988065707L162,313.5681941276538L164.98039215686276,313.5681941276538L166.47058823529412,310.98709880657077L169.45098039215688,310.98709880657077L170.94117647058823,313.5681941276538L169.45098039215688,316.14928944873685L170.94117647058823,318.73038476981986L173.921568627451,318.73038476981986L175.41176470588238,321.31148009090293L173.921568627451,323.8925754119859L170.94117647058823,323.8925754119859L169.45098039215688,321.31148009090293L166.47058823529412,321.31148009090293L164.98039215686276,323.8925754119859L162,323.8925754119859L160.50980392156862,321.31148009090293L162,318.73038476981986L160.50980392156862,316.14928944873685L157.52941176470588,316.14928944873685L156.03921568627453,318.73038476981986L157.52941176470588,321.31148009090293L156.03921568627453,323.8925754119859L153.05882352941177,323.8925754119859L151.56862745098042,321.31148009090293L148.58823529411762,321.31148009090293L147.0980392156863,323.8925754119859L144.11764705882354,323.8925754119859L142.62745098039215,321.31148009090293L144.11764705882354,318.73038476981986L147.0980392156863,318.73038476981986L148.58823529411762,316.14928944873685L147.0980392156863,313.5681941276538L144.11764705882354,313.5681941276538L142.62745098039215,310.98709880657077L144.11764705882354,308.40600348548776L142.62745098039215,305.8249081644047L139.64705882352942,305.8249081644047L138.15686274509804,308.40600348548776L139.64705882352942,310.98709880657077L138.15686274509804,313.5681941276538L135.1764705882353,313.5681941276538L133.68627450980392,316.1492894487369L135.1764705882353,318.73038476981986L138.15686274509804,318.73038476981986L139.64705882352942,321.31148009090293L138.15686274509804,323.89257541198594L135.1764705882353,323.89257541198594L133.68627450980392,321.31148009090293L130.70588235294116,321.31148009090293L129.2156862745098,323.89257541198594L130.70588235294116,326.473670733069L129.2156862745098,329.05476605415197L126.23529411764706,329.05476605415197L124.74509803921568,331.63586137523504L126.23529411764706,334.2169566963181L129.2156862745098,334.2169566963181L130.70588235294116,331.63586137523504L133.68627450980392,331.63586137523504L135.1764705882353,334.2169566963181L133.68627450980392,336.79805201740106L135.1764705882353,339.37914733848413L138.15686274509804,339.37914733848413L139.64705882352942,341.96024265956714L138.15686274509804,344.54133798065027L135.1764705882353,344.54133798065027L133.68627450980392,341.96024265956714L130.70588235294116,341.96024265956714L129.2156862745098,344.54133798065027L126.23529411764706,344.54133798065027L124.74509803921568,341.96024265956714L126.23529411764706,339.37914733848413L124.74509803921568,336.79805201740106L121.76470588235294,336.79805201740106L120.27450980392157,339.37914733848413L121.76470588235294,341.96024265956714L120.27450980392157,344.54133798065027L117.29411764705881,344.54133798065027L115.80392156862746,347.1224333017332L117.29411764705881,349.7035286228163L120.27450980392157,349.7035286228163L121.76470588235294,352.28462394389936L120.27450980392157,354.8657192649824L117.29411764705881,354.8657192649824L115.80392156862746,352.28462394389936L112.8235294117647,352.28462394389936L111.33333333333333,354.8657192649824L112.8235294117647,357.4468145860654L111.33333333333333,360.02790990714846L108.3529411764706,360.02790990714846L106.86274509803921,362.60900522823147L108.3529411764706,365.19010054931454L111.33333333333333,365.19010054931454L112.8235294117647,362.60900522823147L115.80392156862746,362.60900522823147L117.29411764705881,365.19010054931454L120.27450980392157,365.19010054931454L121.76470588235294,362.60900522823147L120.27450980392157,360.02790990714846L121.76470588235294,357.4468145860654L124.74509803921568,357.4468145860654L126.23529411764706,360.02790990714846L124.74509803921568,362.60900522823147L126.23529411764706,365.19010054931454L129.2156862745098,365.19010054931454L130.70588235294116,362.6090052282315L133.68627450980392,362.6090052282315L135.1764705882353,365.19010054931454L138.15686274509804,365.19010054931454L139.64705882352942,362.6090052282315L138.15686274509804,360.02790990714846L135.1764705882353,360.02790990714846L133.68627450980392,357.4468145860654L135.1764705882353,354.8657192649824L138.15686274509804,354.8657192649824L139.64705882352942,352.28462394389936L138.15686274509804,349.70352862281635L139.64705882352942,347.1224333017333L142.62745098039215,347.1224333017333L144.11764705882354,349.70352862281635L142.62745098039215,352.28462394389936L144.11764705882354,354.8657192649824L147.0980392156863,354.8657192649824L148.58823529411762,357.4468145860654L147.0980392156863,360.0279099071485L144.11764705882354,360.02790990714846L142.62745098039215,362.6090052282315L144.11764705882354,365.19010054931454L147.0980392156863,365.19010054931454L148.58823529411762,362.6090052282315L151.56862745098042,362.6090052282315L153.05882352941177,365.19010054931454L156.03921568627453,365.19010054931454L157.52941176470588,362.6090052282315L156.03921568627453,360.0279099071485L157.52941176470588,357.4468145860654L160.50980392156862,357.4468145860654L162,360.0279099071485L160.50980392156862,362.6090052282315L162,365.19010054931454L164.98039215686276,365.19010054931454L166.47058823529412,362.6090052282315L169.45098039215688,362.6090052282315L170.94117647058823,365.19010054931454L173.921568627451,365.19010054931454L175.41176470588238,362.6090052282315L173.921568627451,360.0279099071485L170.94117647058823,360.0279099071485L169.45098039215688,357.4468145860654L170.94117647058823,354.8657192649824L169.45098039215688,352.28462394389936L166.47058823529412,352.28462394389936L164.98039215686276,354.8657192649824L162,354.8657192649824L160.50980392156862,352.28462394389936L162,349.70352862281635L164.98039215686276,349.70352862281635L166.47058823529412,347.1224333017333L164.98039215686276,344.5413379806503L166.47058823529412,341.9602426595672L169.45098039215688,341.9602426595672L170.94117647058823,344.5413379806503L173.921568627451,344.5413379806503L175.41176470588238,341.9602426595672L173.921568627451,339.3791473384842L170.94117647058823,339.3791473384842L169.45098039215688,336.7980520174011L170.94117647058823,334.2169566963181L173.921568627451,334.2169566963181L175.41176470588238,331.6358613752351L173.921568627451,329.054766054152L175.41176470588238,326.47367073306907L178.39215686274508,326.47367073306907L179.8823529411765,329.054766054152L178.39215686274508,331.6358613752351L179.8823529411765,334.2169566963181L182.8627450980392,334.2169566963181L184.35294117647058,336.7980520174011L182.8627450980392,339.3791473384842L179.8823529411765,339.3791473384842L178.39215686274508,341.9602426595672L179.8823529411765,344.5413379806503L182.8627450980392,344.5413379806503L184.35294117647058,341.9602426595672L187.33333333333334,341.9602426595672L188.8235294117647,344.5413379806503L187.33333333333334,347.1224333017333L188.8235294117647,349.70352862281635L191.80392156862746,349.70352862281635L193.29411764705884,352.28462394389936L191.80392156862746,354.8657192649824L188.8235294117647,354.8657192649824L187.33333333333334,352.28462394389936L184.35294117647058,352.28462394389936L182.8627450980392,354.8657192649824L184.35294117647058,357.44681458606544L182.8627450980392,360.0279099071485L179.8823529411765,360.0279099071485L178.39215686274508,362.6090052282315L179.8823529411765,365.19010054931454L182.8627450980392,365.19010054931454L184.35294117647058,362.6090052282315L187.33333333333334,362.6090052282315L188.8235294117647,365.19010054931454L191.80392156862746,365.19010054931454L193.29411764705884,362.6090052282316L191.80392156862746,360.0279099071485L193.29411764705884,357.44681458606544L196.27450980392155,357.44681458606544L197.76470588235296,360.0279099071485L196.27450980392155,362.6090052282316L197.76470588235296,365.19010054931454L200.74509803921566,365.19010054931454L202.23529411764704,362.6090052282316L205.2156862745098,362.6090052282316L206.7058823529412,365.19010054931454L209.68627450980392,365.19010054931454L211.1764705882353,362.6090052282316L209.68627450980392,360.0279099071485L206.7058823529412,360.0279099071485L205.2156862745098,357.44681458606544L206.7058823529412,354.86571926498243L209.68627450980392,354.86571926498243L211.1764705882353,352.28462394389936L209.68627450980392,349.70352862281635L211.1764705882353,347.12243330173334L214.15686274509804,347.12243330173334L215.6470588235294,349.70352862281635L214.15686274509804,352.28462394389936L215.6470588235294,354.86571926498243L218.62745098039215,354.86571926498243L220.11764705882354,357.44681458606544L218.62745098039215,360.02790990714857L215.6470588235294,360.02790990714857L214.15686274509804,362.6090052282316L215.6470588235294,365.19010054931454L218.62745098039215,365.19010054931454L220.11764705882354,362.6090052282316L223.0980392156863,362.6090052282316L224.58823529411762,365.19010054931454L227.5686274509804,365.19010054931454L229.05882352941177,362.6090052282316L227.5686274509804,360.02790990714857L229.05882352941177,357.44681458606544L232.03921568627453,357.4468145860655L233.52941176470588,360.02790990714857L232.03921568627453,362.6090052282316L233.52941176470588,365.19010054931454L236.50980392156862,365.19010054931454L238,362.6090052282316L240.9803921568627,362.6090052282316L242.47058823529412,365.19010054931454L245.45098039215688,365.19010054931454L246.94117647058823,362.6090052282316L245.45098039215688,360.02790990714857L242.47058823529412,360.02790990714857L240.9803921568627,357.4468145860655L242.47058823529412,354.86571926498243L240.9803921568627,352.2846239438994L238,352.2846239438994L236.50980392156862,354.86571926498243L233.52941176470588,354.86571926498243L232.03921568627453,352.2846239438994L233.52941176470588,349.70352862281635L236.50980392156862,349.70352862281635L238,347.12243330173334L236.50980392156862,344.5413379806503L233.52941176470588,344.5413379806503L232.03921568627453,341.96024265956726L233.52941176470588,339.37914733848424L232.03921568627453,336.7980520174011L229.05882352941177,336.7980520174011L227.5686274509804,339.37914733848424L229.05882352941177,341.96024265956726L227.5686274509804,344.5413379806503L224.58823529411762,344.5413379806503L223.0980392156863,341.96024265956726L220.11764705882354,341.96024265956726L218.62745098039215,344.5413379806503L215.6470588235294,344.5413379806503L214.15686274509804,341.96024265956726L215.6470588235294,339.37914733848424L218.62745098039215,339.37914733848424L220.11764705882354,336.7980520174011L218.62745098039215,334.21695669631816L220.11764705882354,331.6358613752351L223.0980392156863,331.6358613752351L224.58823529411762,334.21695669631816L227.5686274509804,334.21695669631816L229.05882352941177,331.6358613752351L227.5686274509804,329.0547660541521L224.58823529411762,329.0547660541521L223.0980392156863,326.47367073306907L224.58823529411762,323.892575411986L227.5686274509804,323.892575411986L229.05882352941177,321.311480090903L227.5686274509804,318.73038476981986L229.05882352941177,316.1492894487369L232.03921568627453,316.1492894487369L233.52941176470588,318.73038476981986L232.03921568627453,321.311480090903L233.52941176470588,323.892575411986L236.50980392156862,323.892575411986L238,321.311480090903L240.9803921568627,321.311480090903L242.47058823529412,323.892575411986L245.45098039215688,323.892575411986L246.94117647058823,321.311480090903L245.45098039215688,318.73038476981986L242.47058823529412,318.73038476981986L240.9803921568627,316.1492894487369L242.47058823529412,313.56819412765384L240.9803921568627,310.9870988065708L238,310.9870988065708L236.50980392156862,313.56819412765384L233.52941176470588,313.56819412765384L232.03921568627453,310.9870988065708L233.52941176470588,308.40600348548776L236.50980392156862,308.40600348548776L238,305.82490816440475L236.50980392156862,303.2438128433217L238,300.66271752223867L240.9803921568627,300.66271752223867L242.47058823529412,303.2438128433217L245.45098039215688,303.2438128433217L246.94117647058823,300.66271752223867L245.45098039215688,298.0816222011556L242.47058823529412,298.0816222011556L240.9803921568627,295.50052688007264L242.47058823529412,292.9194315589896L245.45098039215688,292.9194315589896L246.94117647058823,290.33833623790656L245.45098039215688,287.75724091682355L246.94117647058823,285.1761455957404L249.92156862745097,285.1761455957404L251.41176470588235,287.75724091682355L249.92156862745097,290.33833623790656L251.41176470588235,292.9194315589896L254.3921568627451,292.9194315589896L255.8823529411765,295.50052688007264L254.3921568627451,298.0816222011556L251.41176470588235,298.0816222011556L249.92156862745097,300.66271752223867L251.41176470588235,303.2438128433217L254.3921568627451,303.2438128433217L255.8823529411765,300.66271752223867L258.8627450980392,300.66271752223867L260.3529411764706,303.2438128433217L258.8627450980392,305.82490816440475L260.3529411764706,308.40600348548776L263.3333333333333,308.40600348548776L264.8235294117647,310.9870988065708L263.3333333333333,313.56819412765384L260.3529411764706,313.56819412765384L258.8627450980392,310.9870988065708L255.8823529411765,310.9870988065708L254.3921568627451,313.56819412765384L255.8823529411765,316.1492894487369L254.3921568627451,318.73038476981986L251.41176470588235,318.73038476981986L249.92156862745097,321.31148009090293L251.41176470588235,323.892575411986L254.3921568627451,323.892575411986L255.8823529411765,321.31148009090293L258.8627450980392,321.31148009090293L260.3529411764706,323.892575411986L263.3333333333333,323.892575411986L264.8235294117647,321.31148009090293L263.3333333333333,318.73038476981986L264.8235294117647,316.1492894487369L267.80392156862746,316.1492894487369L269.29411764705884,318.73038476981986L267.80392156862746,321.31148009090293L269.29411764705884,323.892575411986L272.2745098039216,323.892575411986L273.7647058823529,326.47367073306907L272.2745098039216,329.054766054152L269.29411764705884,329.054766054152L267.80392156862746,331.6358613752351L269.29411764705884,334.2169566963181L272.2745098039216,334.2169566963181L273.7647058823529,331.6358613752351L276.7450980392157,331.6358613752351L278.2352941176471,334.2169566963181L276.7450980392157,336.7980520174011L278.2352941176471,339.3791473384842L281.21568627450984,339.3791473384842L282.70588235294116,341.9602426595672L281.21568627450984,344.5413379806503L278.2352941176471,344.5413379806503L276.7450980392157,341.9602426595672L273.7647058823529,341.9602426595672L272.2745098039216,344.5413379806503L269.29411764705884,344.5413379806503L267.80392156862746,341.9602426595672L269.29411764705884,339.3791473384842L267.80392156862746,336.7980520174011L264.8235294117647,336.7980520174011L263.3333333333333,339.3791473384842L264.8235294117647,341.9602426595672L263.3333333333333,344.5413379806503L260.3529411764706,344.5413379806503L258.8627450980392,347.1224333017333L260.3529411764706,349.70352862281635L263.3333333333333,349.70352862281635L264.8235294117647,352.28462394389936L263.3333333333333,354.8657192649824L260.3529411764706,354.8657192649824L258.8627450980392,352.28462394389936L255.8823529411765,352.28462394389936L254.3921568627451,354.8657192649824L255.8823529411765,357.44681458606544L254.3921568627451,360.0279099071485L251.41176470588235,360.0279099071485L249.92156862745097,362.6090052282315L251.41176470588235,365.19010054931454L254.3921568627451,365.19010054931454L255.8823529411765,362.6090052282315L258.8627450980392,362.6090052282315L260.3529411764706,365.19010054931454L263.3333333333333,365.19010054931454L264.8235294117647,362.6090052282315L263.3333333333333,360.0279099071485L264.8235294117647,357.44681458606544L267.80392156862746,357.44681458606544L269.29411764705884,360.0279099071485L267.80392156862746,362.6090052282315L269.29411764705884,365.19010054931454L272.2745098039216,365.19010054931454L273.7647058823529,362.6090052282316L276.7450980392157,362.6090052282316L278.2352941176471,365.19010054931454L281.21568627450984,365.19010054931454L282.70588235294116,362.6090052282316L281.21568627450984,360.0279099071485L278.2352941176471,360.0279099071485L276.7450980392157,357.44681458606544L278.2352941176471,354.86571926498243L281.21568627450984,354.86571926498243L282.70588235294116,352.28462394389936L281.21568627450984,349.70352862281635L282.70588235294116,347.12243330173334L285.6862745098039,347.12243330173334L287.17647058823525,349.70352862281635L285.6862745098039,352.28462394389936L287.17647058823525,354.86571926498243L290.15686274509807,354.86571926498243L291.6470588235294,357.44681458606544L290.15686274509807,360.0279099071485L287.17647058823525,360.0279099071485L285.6862745098039,362.6090052282316L287.17647058823525,365.19010054931454L290.15686274509807,365.19010054931454L291.6470588235294,362.6090052282316L294.62745098039215,362.6090052282316L296.11764705882354,365.19010054931454L299.09803921568624,365.19010054931454L300.5882352941176,362.6090052282316L299.09803921568624,360.02790990714857L300.5882352941176,357.44681458606544L303.5686274509804,357.44681458606544L305.05882352941177,360.02790990714857L303.5686274509804,362.6090052282316L305.05882352941177,365.19010054931454L308.03921568627453,365.19010054931454L309.52941176470586,362.6090052282316L312.5098039215686,362.6090052282316L314,365.19010054931454L316.98039215686276,365.19010054931454L318.4705882352941,362.6090052282316L316.98039215686276,360.02790990714857L314,360.02790990714857L312.5098039215686,357.44681458606544L314,354.86571926498243L312.5098039215686,352.2846239438994L309.52941176470586,352.2846239438994L308.03921568627453,354.86571926498243L305.05882352941177,354.86571926498243L303.5686274509804,352.28462394389936L305.05882352941177,349.70352862281635L308.03921568627453,349.70352862281635L309.52941176470586,347.12243330173334L308.03921568627453,344.5413379806503L309.52941176470586,341.96024265956726L312.5098039215686,341.96024265956726L314,344.5413379806503L316.98039215686276,344.5413379806503L318.4705882352941,341.96024265956726L316.98039215686276,339.37914733848424L314,339.37914733848424L312.5098039215686,336.7980520174011L314,334.21695669631816L316.98039215686276,334.21695669631816L318.4705882352941,331.6358613752351L316.98039215686276,329.0547660541521L318.4705882352941,326.4736707330691L321.45098039215685,326.4736707330691L322.94117647058823,329.0547660541521L321.45098039215685,331.6358613752351L322.94117647058823,334.21695669631816L325.921568627451,334.21695669631816L327.4117647058823,336.7980520174011L325.921568627451,339.37914733848424L322.94117647058823,339.37914733848424L321.45098039215685,341.96024265956726L322.94117647058823,344.5413379806503L325.921568627451,344.5413379806503L327.4117647058823,341.96024265956726L330.3921568627451,341.96024265956726L331.88235294117646,344.5413379806503L330.3921568627451,347.12243330173334L331.88235294117646,349.7035286228164L334.86274509803917,349.7035286228164L336.3529411764706,352.2846239438994L334.86274509803917,354.86571926498243L331.88235294117646,354.86571926498243L330.3921568627451,352.2846239438994L327.4117647058823,352.2846239438994L325.921568627451,354.86571926498243L327.4117647058823,357.4468145860655L325.921568627451,360.02790990714857L322.94117647058823,360.02790990714857L321.45098039215685,362.6090052282316L322.94117647058823,365.19010054931454L325.921568627451,365.19010054931454L327.4117647058823,362.6090052282316L330.3921568627451,362.6090052282316L331.88235294117646,365.19010054931454L334.86274509803917,365.19010054931454L336.3529411764706,362.6090052282316L334.86274509803917,360.02790990714857L336.3529411764706,357.4468145860655L339.3333333333333,357.4468145860655L340.82352941176475,360.02790990714857L339.3333333333333,362.6090052282316L340.82352941176475,365.19010054931454L343.8039215686274,365.19010054931454L345.29411764705884,362.6090052282316L348.27450980392155,362.6090052282316L349.764705882353,365.19010054931454L352.7450980392157,365.19010054931454L354.2352941176471,362.6090052282316L352.7450980392157,360.02790990714857L349.764705882353,360.02790990714857L348.27450980392155,357.4468145860655L349.764705882353,354.8657192649825L352.7450980392157,354.8657192649825L354.2352941176471,352.2846239438994L352.7450980392157,349.7035286228164L354.2352941176471,347.12243330173334L357.2156862745098,347.12243330173334L358.70588235294116,349.7035286228164L357.2156862745098,352.2846239438995L358.70588235294116,354.8657192649825L361.6862745098039,354.8657192649825L363.1764705882353,357.4468145860655L361.6862745098039,360.02790990714857L358.70588235294116,360.02790990714857L357.2156862745098,362.6090052282316L358.70588235294116,365.19010054931454L361.6862745098039,365.19010054931454L363.1764705882353,362.6090052282316L366.156862745098,362.6090052282316L367.6470588235294,365.19010054931454L370.62745098039215,365.1901005493146L372.11764705882354,362.6090052282316L370.62745098039215,360.02790990714857L372.11764705882354,357.4468145860655L375.09803921568624,357.4468145860655L376.5882352941177,360.02790990714857L375.09803921568624,362.6090052282316L376.5882352941177,365.1901005493146L379.5686274509804,365.1901005493146L381.05882352941177,362.6090052282316L384.03921568627453,362.6090052282316L385.5294117647059,365.1901005493146L388.5098039215687,365.1901005493146L390,362.6090052282316L388.5098039215687,360.02790990714857L385.5294117647059,360.02790990714857L384.03921568627453,357.44681458606556L385.5294117647059,354.8657192649825L384.03921568627453,352.2846239438995L381.05882352941177,352.2846239438995L379.5686274509804,354.8657192649825L376.5882352941177,354.8657192649825L375.09803921568624,352.2846239438995L376.5882352941177,349.7035286228164L379.5686274509804,349.7035286228164L381.05882352941177,347.12243330173334L379.5686274509804,344.5413379806504L376.5882352941177,344.5413379806504L375.09803921568624,341.9602426595673L376.5882352941177,339.3791473384843L375.09803921568624,336.79805201740123L372.11764705882354,336.7980520174012L370.62745098039215,339.3791473384843L372.11764705882354,341.9602426595673L370.62745098039215,344.5413379806503L367.6470588235294,344.5413379806503L366.156862745098,341.9602426595673L363.1764705882353,341.9602426595673L361.6862745098039,344.5413379806503L358.70588235294116,344.5413379806503L357.2156862745098,341.9602426595673L358.70588235294116,339.37914733848424L361.6862745098039,339.37914733848424L363.1764705882353,336.7980520174012L361.6862745098039,334.2169566963182L363.1764705882353,331.6358613752351L366.156862745098,331.6358613752351L367.6470588235294,334.2169566963182L370.62745098039215,334.2169566963182L372.11764705882354,331.6358613752351L370.62745098039215,329.0547660541521L367.6470588235294,329.0547660541521L366.156862745098,326.4736707330691L367.6470588235294,323.89257541198606L366.156862745098,321.31148009090305L363.1764705882353,321.31148009090305L361.6862745098039,323.89257541198606L358.70588235294116,323.89257541198606L357.2156862745098,321.311480090903L358.70588235294116,318.7303847698199L361.6862745098039,318.7303847698199L363.1764705882353,316.14928944873697L361.6862745098039,313.56819412765384L358.70588235294116,313.56819412765384L357.2156862745098,310.9870988065709L358.70588235294116,308.4060034854878L357.2156862745098,305.8249081644048L354.2352941176471,305.8249081644048L352.7450980392157,308.4060034854878L354.2352941176471,310.9870988065709L352.7450980392157,313.56819412765384L349.764705882353,313.56819412765384L348.27450980392155,316.1492894487369L349.764705882353,318.7303847698199L352.7450980392157,318.7303847698199L354.2352941176471,321.311480090903L352.7450980392157,323.89257541198606L349.764705882353,323.892575411986L348.27450980392155,321.311480090903L345.29411764705884,321.311480090903L343.8039215686274,323.892575411986L340.82352941176475,323.892575411986L339.3333333333333,321.311480090903L340.82352941176475,318.73038476981986L339.3333333333333,316.1492894487369L336.3529411764706,316.1492894487369L334.86274509803917,318.73038476981986L336.3529411764706,321.311480090903L334.86274509803917,323.892575411986L331.88235294117646,323.892575411986L330.3921568627451,321.311480090903L327.4117647058823,321.31148009090293L325.921568627451,323.892575411986L322.94117647058823,323.892575411986L321.45098039215685,321.31148009090293L322.94117647058823,318.73038476981986L325.921568627451,318.73038476981986L327.4117647058823,316.1492894487369L325.921568627451,313.56819412765384L327.4117647058823,310.9870988065708L330.3921568627451,310.9870988065708L331.88235294117646,313.56819412765384L334.86274509803917,313.56819412765384L336.3529411764706,310.9870988065708L334.86274509803917,308.40600348548776L331.88235294117646,308.40600348548776L330.3921568627451,305.82490816440475L331.88235294117646,303.2438128433217L334.86274509803917,303.2438128433217L336.3529411764706,300.66271752223867L334.86274509803917,298.0816222011556L336.3529411764706,295.50052688007264L339.3333333333333,295.50052688007264L340.82352941176475,298.0816222011556L339.3333333333333,300.66271752223867L340.82352941176475,303.2438128433217L343.8039215686274,303.2438128433217L345.29411764705884,300.66271752223867L348.27450980392155,300.66271752223867L349.764705882353,303.2438128433217L352.7450980392157,303.2438128433217L354.2352941176471,300.66271752223867L352.7450980392157,298.0816222011556L349.764705882353,298.0816222011556L348.27450980392155,295.5005268800726L349.764705882353,292.9194315589896L348.27450980392155,290.3383362379065L345.29411764705884,290.3383362379065L343.8039215686274,292.9194315589896L340.82352941176475,292.9194315589896L339.3333333333333,290.3383362379065L340.82352941176475,287.7572409168235L343.8039215686274,287.7572409168235L345.29411764705884,285.1761455957404L343.8039215686274,282.5950502746574L340.82352941176475,282.5950502746574L339.3333333333333,280.0139549535744L340.82352941176475,277.4328596324914L339.3333333333333,274.85176431140826L336.3529411764706,274.85176431140826L334.86274509803917,277.43285963249133L336.3529411764706,280.0139549535744L334.86274509803917,282.5950502746574L331.88235294117646,282.5950502746574L330.3921568627451,280.01395495357434L327.4117647058823,280.01395495357434L325.921568627451,282.5950502746574L322.94117647058823,282.5950502746574L321.45098039215685,280.01395495357434L322.94117647058823,277.43285963249133L325.921568627451,277.43285963249133L327.4117647058823,274.85176431140826L325.921568627451,272.27066899032525L327.4117647058823,269.6895736692422L330.3921568627451,269.6895736692422L331.88235294117646,272.27066899032525L334.86274509803917,272.27066899032525L336.3529411764706,269.6895736692422L334.86274509803917,267.1084783481592L331.88235294117646,267.1084783481592L330.3921568627451,264.5273830270761L331.88235294117646,261.9462877059931L330.3921568627451,259.3651923849101L327.4117647058823,259.3651923849101L325.921568627451,261.9462877059931L322.94117647058823,261.9462877059931L321.45098039215685,259.3651923849101L322.94117647058823,256.78409706382706L325.921568627451,256.78409706382706L327.4117647058823,254.203001742744L325.921568627451,251.62190642166092L322.94117647058823,251.62190642166092L321.45098039215685,249.04081110057788L322.94117647058823,246.45971577949484L321.45098039215685,243.87862045841183L318.4705882352941,243.87862045841183L316.98039215686276,246.45971577949484L318.4705882352941,249.04081110057788L316.98039215686276,251.62190642166092L314,251.62190642166092L312.5098039215686,254.203001742744L314,256.78409706382706L316.98039215686276,256.78409706382706L318.4705882352941,259.3651923849101L316.98039215686276,261.9462877059931L314,261.9462877059931L312.5098039215686,259.3651923849101L309.52941176470586,259.3651923849101L308.03921568627453,261.9462877059931L309.52941176470586,264.5273830270761L308.03921568627453,267.1084783481592L305.05882352941177,267.1084783481592L303.5686274509804,269.6895736692422L305.05882352941177,272.27066899032525L308.03921568627453,272.27066899032525L309.52941176470586,269.6895736692422L312.5098039215686,269.6895736692422L314,272.27066899032525L312.5098039215686,274.85176431140826L314,277.43285963249133L316.98039215686276,277.43285963249133L318.4705882352941,280.0139549535744L316.98039215686276,282.5950502746574L314,282.5950502746574L312.5098039215686,280.01395495357434L309.52941176470586,280.01395495357434L308.03921568627453,282.5950502746574L305.05882352941177,282.5950502746574L303.5686274509804,280.01395495357434L305.05882352941177,277.43285963249133L303.5686274509804,274.85176431140826L300.5882352941176,274.85176431140826L299.09803921568624,277.43285963249133L300.5882352941176,280.01395495357434L299.09803921568624,282.5950502746574L296.11764705882354,282.5950502746574L294.62745098039215,280.01395495357434L291.6470588235294,280.01395495357434L290.15686274509807,282.59505027465735L287.17647058823525,282.59505027465735L285.6862745098039,280.01395495357434L287.17647058823525,277.4328596324913L290.15686274509807,277.4328596324913L291.6470588235294,274.8517643114082L290.15686274509807,272.27066899032525L287.17647058823525,272.27066899032525L285.6862745098039,269.6895736692422L287.17647058823525,267.10847834815917L285.6862745098039,264.5273830270761L282.70588235294116,264.5273830270761L281.21568627450984,267.10847834815917L282.70588235294116,269.6895736692422L281.21568627450984,272.27066899032525L278.2352941176471,272.27066899032525L276.7450980392157,274.8517643114082L278.2352941176471,277.4328596324913L281.21568627450984,277.4328596324913L282.70588235294116,280.01395495357434L281.21568627450984,282.59505027465735L278.2352941176471,282.59505027465735L276.7450980392157,280.01395495357434L273.7647058823529,280.01395495357434L272.2745098039216,282.59505027465735L269.29411764705884,282.59505027465735L267.80392156862746,280.01395495357434L269.29411764705884,277.4328596324913L267.80392156862746,274.8517643114082L264.8235294117647,274.8517643114082L263.3333333333333,277.4328596324913L264.8235294117647,280.01395495357434L263.3333333333333,282.59505027465735L260.3529411764706,282.59505027465735L258.8627450980392,280.0139549535743L255.8823529411765,280.0139549535743L254.3921568627451,282.5950502746573L251.41176470588235,282.5950502746573L249.92156862745097,280.0139549535743L251.41176470588235,277.4328596324913L254.3921568627451,277.4328596324913L255.8823529411765,274.8517643114082L254.3921568627451,272.2706689903252L255.8823529411765,269.6895736692422L258.8627450980392,269.6895736692422L260.3529411764706,272.2706689903252L263.3333333333333,272.2706689903252L264.8235294117647,269.6895736692422L263.3333333333333,267.1084783481591L260.3529411764706,267.1084783481591L258.8627450980392,264.527383027076L260.3529411764706,261.94628770599303L263.3333333333333,261.94628770599303L264.8235294117647,259.36519238491L263.3333333333333,256.78409706382695L264.8235294117647,254.2030017427439L267.80392156862746,254.2030017427439L269.29411764705884,256.78409706382695L267.80392156862746,259.36519238491L269.29411764705884,261.94628770599303L272.2745098039216,261.94628770599303L273.7647058823529,259.36519238491L276.7450980392157,259.36519238491L278.2352941176471,261.94628770599303L281.21568627450984,261.94628770599303L282.70588235294116,259.36519238491L281.21568627450984,256.78409706382695L278.2352941176471,256.78409706382695L276.7450980392157,254.2030017427439L278.2352941176471,251.62190642166087L276.7450980392157,249.04081110057783L273.7647058823529,249.04081110057783L272.2745098039216,251.62190642166087L269.29411764705884,251.62190642166087L267.80392156862746,249.04081110057783L269.29411764705884,246.4597157794948L272.2745098039216,246.4597157794948L273.7647058823529,243.87862045841175L272.2745098039216,241.2975251373287L273.7647058823529,238.7164298162457L276.7450980392157,238.7164298162457L278.2352941176471,241.2975251373287L281.21568627450984,241.2975251373287L282.70588235294116,238.7164298162457L281.21568627450984,236.13533449516265L278.2352941176471,236.13533449516265L276.7450980392157,233.55423917407958L278.2352941176471,230.97314385299654L281.21568627450984,230.97314385299654L282.70588235294116,228.3920485319135L281.21568627450984,225.8109532108305L282.70588235294116,223.2298578897474L285.6862745098039,223.2298578897474L287.17647058823525,225.8109532108305L285.6862745098039,228.3920485319135L287.17647058823525,230.97314385299654L290.15686274509807,230.97314385299654L291.6470588235294,233.55423917407958L290.15686274509807,236.13533449516265L287.17647058823525,236.13533449516265L285.6862745098039,238.7164298162457L287.17647058823525,241.2975251373287L290.15686274509807,241.2975251373287L291.6470588235294,238.7164298162457L294.62745098039215,238.7164298162457L296.11764705882354,241.2975251373287L299.09803921568624,241.2975251373287L300.5882352941176,238.7164298162457L299.09803921568624,236.13533449516265L300.5882352941176,233.55423917407958L303.5686274509804,233.55423917407958L305.05882352941177,236.13533449516265L303.5686274509804,238.7164298162457L305.05882352941177,241.2975251373287L308.03921568627453,241.2975251373287L309.52941176470586,238.7164298162457L312.5098039215686,238.7164298162457L314,241.2975251373287L316.98039215686276,241.2975251373287L318.4705882352941,238.7164298162457L316.98039215686276,236.13533449516265L314,236.13533449516265L312.5098039215686,233.55423917407958L314,230.97314385299654L312.5098039215686,228.3920485319135L309.52941176470586,228.3920485319135L308.03921568627453,230.97314385299654L305.05882352941177,230.97314385299654L303.5686274509804,228.3920485319135L305.05882352941177,225.8109532108305L308.03921568627453,225.8109532108305L309.52941176470586,223.2298578897474L308.03921568627453,220.64876256866438L305.05882352941177,220.64876256866438L303.5686274509804,218.06766724758137L305.05882352941177,215.4865719264983L303.5686274509804,212.90547660541526L300.5882352941176,212.90547660541526L299.09803921568624,215.4865719264983L300.5882352941176,218.06766724758137L299.09803921568624,220.64876256866438L296.11764705882354,220.64876256866438L294.62745098039215,218.06766724758137L291.6470588235294,218.06766724758137L290.15686274509807,220.64876256866438L287.17647058823525,220.64876256866438L285.6862745098039,218.06766724758137L287.17647058823525,215.4865719264983L290.15686274509807,215.4865719264983L291.6470588235294,212.90547660541526L290.15686274509807,210.32438128433222L291.6470588235294,207.74328596324924L294.62745098039215,207.74328596324924L296.11764705882354,210.32438128433222L299.09803921568624,210.32438128433222L300.5882352941176,207.74328596324924L299.09803921568624,205.16219064216617L296.11764705882354,205.16219064216617L294.62745098039215,202.58109532108307L296.11764705882354,200.00000000000009L294.62745098039215,197.41890467891704L291.6470588235294,197.41890467891704L290.15686274509807,200.00000000000009L287.17647058823525,200.00000000000009L285.6862745098039,197.41890467891704L287.17647058823525,194.83780935783398L290.15686274509807,194.83780935783398L291.6470588235294,192.25671403675094L290.15686274509807,189.6756187156679L287.17647058823525,189.6756187156679L285.6862745098039,187.09452339458485L287.17647058823525,184.5134280735018L285.6862745098039,181.9323327524188L282.70588235294116,181.9323327524188L281.21568627450984,184.5134280735018L282.70588235294116,187.09452339458485L281.21568627450984,189.6756187156679L278.2352941176471,189.6756187156679L276.7450980392157,192.25671403675094L278.2352941176471,194.83780935783398L281.21568627450984,194.83780935783398L282.70588235294116,197.41890467891704L281.21568627450984,200.00000000000009L278.2352941176471,200.00000000000009L276.7450980392157,197.41890467891704L273.7647058823529,197.41890467891704L272.2745098039216,200.00000000000009L269.29411764705884,200.00000000000009L267.80392156862746,197.41890467891704L269.29411764705884,194.83780935783398L267.80392156862746,192.25671403675094L264.8235294117647,192.25671403675094L263.3333333333333,194.83780935783398L264.8235294117647,197.41890467891704L263.3333333333333,200.00000000000009L260.3529411764706,200.00000000000009L258.8627450980392,197.41890467891704L255.8823529411765,197.41890467891704L254.3921568627451,200.00000000000009L251.41176470588235,200.00000000000009L249.92156862745097,197.41890467891704L251.41176470588235,194.83780935783398L254.3921568627451,194.83780935783398L255.8823529411765,192.25671403675094L254.3921568627451,189.6756187156679L255.8823529411765,187.09452339458485L258.8627450980392,187.09452339458485L260.3529411764706,189.6756187156679L263.3333333333333,189.6756187156679L264.8235294117647,187.09452339458485L263.3333333333333,184.5134280735018L260.3529411764706,184.5134280735018L258.8627450980392,181.9323327524188L260.3529411764706,179.35123743133576L263.3333333333333,179.35123743133576L264.8235294117647,176.77014211025272L263.3333333333333,174.18904678916968L264.8235294117647,171.60795146808664L267.80392156862746,171.60795146808664L269.29411764705884,174.18904678916968L267.80392156862746,176.77014211025272L269.29411764705884,179.35123743133576L272.2745098039216,179.35123743133576L273.7647058823529,176.77014211025272L276.7450980392157,176.77014211025272L278.2352941176471,179.35123743133576L281.21568627450984,179.35123743133576L282.70588235294116,176.77014211025272L281.21568627450984,174.18904678916968L278.2352941176471,174.18904678916968L276.7450980392157,171.60795146808664L278.2352941176471,169.02685614700363L276.7450980392157,166.4457608259206L273.7647058823529,166.4457608259206L272.2745098039216,169.02685614700363L269.29411764705884,169.02685614700363L267.80392156862746,166.4457608259206L269.29411764705884,163.86466550483757L272.2745098039216,163.86466550483757L273.7647058823529,161.28357018375456L272.2745098039216,158.70247486267155L269.29411764705884,158.70247486267155L267.80392156862746,156.12137954158854L269.29411764705884,153.5402842205055L267.80392156862746,150.9591888994225L264.8235294117647,150.9591888994225L263.3333333333333,153.5402842205055L264.8235294117647,156.12137954158854L263.3333333333333,158.70247486267155L260.3529411764706,158.70247486267155L258.8627450980392,156.12137954158854L255.8823529411765,156.12137954158854L254.3921568627451,158.70247486267155L251.41176470588235,158.70247486267155L249.92156862745097,156.12137954158854L251.41176470588235,153.5402842205055L254.3921568627451,153.5402842205055L255.8823529411765,150.9591888994225L254.3921568627451,148.37809357833945L255.8823529411765,145.79699825725643L258.8627450980392,145.79699825725643L260.3529411764706,148.37809357833945L263.3333333333333,148.37809357833945L264.8235294117647,145.79699825725643L263.3333333333333,143.21590293617342L260.3529411764706,143.21590293617342L258.8627450980392,140.63480761509038L260.3529411764706,138.05371229400743L258.8627450980392,135.47261697292438L255.8823529411765,135.47261697292438L254.3921568627451,138.05371229400743L251.41176470588235,138.05371229400743L249.92156862745097,135.47261697292438L251.41176470588235,132.89152165184137L254.3921568627451,132.89152165184137L255.8823529411765,130.31042633075833L254.3921568627451,127.72933100967532L251.41176470588235,127.72933100967532L249.92156862745097,125.14823568859231L251.41176470588235,122.56714036750928L249.92156862745097,119.98604504642627L246.94117647058823,119.98604504642627L245.45098039215688,122.56714036750928L246.94117647058823,125.14823568859231L245.45098039215688,127.72933100967532L242.47058823529412,127.72933100967532L240.9803921568627,130.31042633075833L242.47058823529412,132.89152165184137L245.45098039215688,132.89152165184137L246.94117647058823,135.47261697292438L245.45098039215688,138.05371229400743L242.47058823529412,138.05371229400743L240.9803921568627,135.47261697292438L238,135.47261697292438L236.50980392156862,138.05371229400743L238,140.63480761509038L236.50980392156862,143.21590293617342L233.52941176470588,143.21590293617342L232.03921568627453,145.79699825725643L233.52941176470588,148.37809357833945L236.50980392156862,148.37809357833945L238,145.79699825725643L240.9803921568627,145.79699825725643L242.47058823529412,148.37809357833945L240.9803921568627,150.9591888994225L242.47058823529412,153.5402842205055L245.45098039215688,153.5402842205055L246.94117647058823,156.12137954158854L245.45098039215688,158.70247486267155L242.47058823529412,158.70247486267155L240.9803921568627,156.12137954158854L238,156.12137954158854L236.50980392156862,158.70247486267155L233.52941176470588,158.70247486267155L232.03921568627453,156.12137954158854L233.52941176470588,153.5402842205055L232.03921568627453,150.9591888994225L229.05882352941177,150.9591888994225L227.5686274509804,153.5402842205055L229.05882352941177,156.12137954158854L227.5686274509804,158.70247486267155L224.58823529411762,158.70247486267155L223.0980392156863,161.28357018375456L224.58823529411762,163.86466550483757L227.5686274509804,163.86466550483757L229.05882352941177,166.4457608259206L227.5686274509804,169.02685614700363L224.58823529411762,169.02685614700363L223.0980392156863,166.4457608259206L220.11764705882354,166.4457608259206L218.62745098039215,169.02685614700363L220.11764705882354,171.60795146808664L218.62745098039215,174.18904678916968L215.6470588235294,174.18904678916968L214.15686274509804,176.77014211025272L215.6470588235294,179.35123743133576L218.62745098039215,179.35123743133576L220.11764705882354,176.77014211025272L223.0980392156863,176.77014211025272L224.58823529411762,179.35123743133576L227.5686274509804,179.35123743133576L229.05882352941177,176.77014211025272L227.5686274509804,174.18904678916968L229.05882352941177,171.60795146808664L232.03921568627453,171.60795146808664L233.52941176470588,174.18904678916968L232.03921568627453,176.77014211025272L233.52941176470588,179.35123743133576L236.50980392156862,179.35123743133576L238,181.9323327524188L236.50980392156862,184.5134280735018L233.52941176470588,184.5134280735018L232.03921568627453,187.09452339458485L233.52941176470588,189.6756187156679L236.50980392156862,189.6756187156679L238,187.09452339458485L240.9803921568627,187.09452339458485L242.47058823529412,189.6756187156679L240.9803921568627,192.25671403675094L242.47058823529412,194.83780935783398L245.45098039215688,194.83780935783398L246.94117647058823,197.41890467891704L245.45098039215688,200.00000000000009L242.47058823529412,200.00000000000009L240.9803921568627,197.41890467891704L238,197.41890467891704L236.50980392156862,200.00000000000009L233.52941176470588,200.00000000000009L232.03921568627453,197.41890467891704L233.52941176470588,194.83780935783398L232.03921568627453,192.25671403675094L229.05882352941177,192.25671403675094L227.5686274509804,194.83780935783398L229.05882352941177,197.41890467891704L227.5686274509804,200.00000000000009L224.58823529411762,200.00000000000009L223.0980392156863,197.41890467891704L220.11764705882354,197.41890467891704L218.62745098039215,200.00000000000009L215.6470588235294,200.00000000000009L214.15686274509804,197.41890467891704L215.6470588235294,194.83780935783398L218.62745098039215,194.83780935783398L220.11764705882354,192.25671403675094L218.62745098039215,189.6756187156679L215.6470588235294,189.6756187156679L214.15686274509804,187.09452339458485L215.6470588235294,184.5134280735018L214.15686274509804,181.9323327524188L211.1764705882353,181.9323327524188L209.68627450980392,184.5134280735018L211.1764705882353,187.09452339458485L209.68627450980392,189.6756187156679L206.7058823529412,189.6756187156679L205.2156862745098,192.25671403675094L206.7058823529412,194.83780935783398L209.68627450980392,194.83780935783398L211.1764705882353,197.41890467891704L209.68627450980392,200.00000000000009L206.7058823529412,200.00000000000009L205.2156862745098,197.41890467891704L202.23529411764704,197.41890467891704L200.74509803921566,200.00000000000009L197.76470588235296,200.00000000000009L196.27450980392155,197.41890467891704L197.76470588235296,194.83780935783398L196.27450980392155,192.25671403675094L193.29411764705884,192.25671403675094L191.80392156862746,194.83780935783398L193.29411764705884,197.41890467891704L191.80392156862746,200.00000000000009L188.8235294117647,200.00000000000009L187.33333333333334,197.41890467891704L184.35294117647058,197.41890467891704L182.8627450980392,200.00000000000009L179.8823529411765,200.00000000000009L178.39215686274508,197.41890467891704L179.8823529411765,194.83780935783398L182.8627450980392,194.83780935783398L184.35294117647058,192.25671403675094L182.8627450980392,189.6756187156679L184.35294117647058,187.09452339458485L187.33333333333334,187.09452339458485L188.8235294117647,189.6756187156679L191.80392156862746,189.6756187156679L193.29411764705884,187.09452339458485L191.80392156862746,184.5134280735018L188.8235294117647,184.5134280735018L187.33333333333334,181.9323327524188L188.8235294117647,179.35123743133576L187.33333333333334,176.77014211025272L184.35294117647058,176.77014211025272L182.8627450980392,179.35123743133576L179.8823529411765,179.35123743133576L178.39215686274508,176.77014211025272L179.8823529411765,174.18904678916968L182.8627450980392,174.18904678916968L184.35294117647058,171.60795146808664L182.8627450980392,169.02685614700363L179.8823529411765,169.02685614700363L178.39215686274508,166.4457608259206L179.8823529411765,163.86466550483757L178.39215686274508,161.28357018375456L175.41176470588238,161.28357018375456L173.921568627451,163.86466550483757L175.41176470588238,166.4457608259206L173.921568627451,169.02685614700363L170.94117647058823,169.02685614700363L169.45098039215688,171.60795146808664L170.94117647058823,174.18904678916968L173.921568627451,174.18904678916968L175.41176470588238,176.77014211025272L173.921568627451,179.35123743133576L170.94117647058823,179.35123743133576L169.45098039215688,176.77014211025272L166.47058823529412,176.77014211025272L164.98039215686276,179.35123743133576L166.47058823529412,181.9323327524188L164.98039215686276,184.5134280735018L162,184.5134280735018L160.50980392156862,187.09452339458485L162,189.6756187156679L164.98039215686276,189.6756187156679L166.47058823529412,187.09452339458485L169.45098039215688,187.09452339458485L170.94117647058823,189.6756187156679L169.45098039215688,192.25671403675094L170.94117647058823,194.83780935783398L173.921568627451,194.83780935783398L175.41176470588238,197.41890467891704L173.921568627451,200.00000000000009L170.94117647058823,200.00000000000009L169.45098039215688,197.41890467891704L166.47058823529412,197.41890467891704L164.98039215686276,200.00000000000009L162,200.00000000000009L160.50980392156862,197.41890467891704L162,194.83780935783398L160.50980392156862,192.25671403675094L157.52941176470588,192.25671403675094L156.03921568627453,194.83780935783398L157.52941176470588,197.41890467891704L156.03921568627453,200.00000000000009L153.05882352941177,200.00000000000009L151.56862745098042,197.41890467891704L148.58823529411762,197.41890467891704L147.0980392156863,200.00000000000009L144.11764705882354,200.00000000000009L142.62745098039215,197.41890467891704L144.11764705882354,194.83780935783398L147.0980392156863,194.83780935783398L148.58823529411762,192.25671403675094L147.0980392156863,189.6756187156679L144.11764705882354,189.6756187156679L142.62745098039215,187.09452339458485L144.11764705882354,184.5134280735018L142.62745098039215,181.9323327524188L139.64705882352942,181.9323327524188L138.15686274509804,184.5134280735018L139.64705882352942,187.09452339458485L138.15686274509804,189.6756187156679L135.1764705882353,189.6756187156679L133.68627450980392,192.25671403675094L135.1764705882353,194.83780935783398L138.15686274509804,194.83780935783398L139.64705882352942,197.41890467891704L138.15686274509804,200.00000000000009L135.1764705882353,200.00000000000009L133.68627450980392,197.41890467891704L130.70588235294116,197.41890467891704L129.2156862745098,200.00000000000009L126.23529411764706,200.00000000000009L124.74509803921568,197.41890467891704L126.23529411764706,194.83780935783398L124.74509803921568,192.25671403675094L121.76470588235294,192.25671403675094L120.27450980392157,194.83780935783398L121.76470588235294,197.41890467891704L120.27450980392157,200.00000000000009L117.29411764705881,200.00000000000009L115.80392156862746,197.41890467891704L112.8235294117647,197.41890467891704L111.33333333333333,200.00000000000009L108.3529411764706,200.00000000000009L106.86274509803921,197.41890467891704L108.3529411764706,194.83780935783398L111.33333333333333,194.83780935783398L112.8235294117647,192.25671403675094L111.33333333333333,189.6756187156679L112.8235294117647,187.09452339458485L115.80392156862746,187.09452339458485L117.29411764705881,189.6756187156679L120.27450980392157,189.6756187156679L121.76470588235294,187.09452339458485L120.27450980392157,184.5134280735018L117.29411764705881,184.5134280735018L115.80392156862746,181.9323327524188L117.29411764705881,179.35123743133576L120.27450980392157,179.35123743133576L121.76470588235294,176.77014211025272L120.27450980392157,174.18904678916968L121.76470588235294,171.60795146808664L124.74509803921568,171.60795146808664L126.23529411764706,174.1890467891697L124.74509803921568,176.77014211025275L126.23529411764706,179.35123743133582L129.2156862745098,179.35123743133582L130.70588235294116,176.77014211025275L133.68627450980392,176.77014211025275L135.1764705882353,179.35123743133582L138.15686274509804,179.35123743133582L139.64705882352942,176.77014211025275L138.15686274509804,174.1890467891697L135.1764705882353,174.1890467891697L133.68627450980392,171.60795146808664L135.1764705882353,169.02685614700363L133.68627450980392,166.44576082592056L130.70588235294116,166.44576082592056L129.2156862745098,169.0268561470036L126.23529411764706,169.0268561470036L124.74509803921568,166.4457608259205L126.23529411764706,163.8646655048375L129.2156862745098,163.8646655048375L130.70588235294116,161.28357018375448L129.2156862745098,158.7024748626714L130.70588235294116,156.1213795415884L133.68627450980392,156.1213795415884L135.1764705882353,158.70247486267147L138.15686274509804,158.70247486267147L139.64705882352942,156.12137954158845L138.15686274509804,153.54028422050536L135.1764705882353,153.54028422050536L133.68627450980392,150.95918889942232L135.1764705882353,148.3780935783393L138.15686274509804,148.3780935783393L139.64705882352942,145.7969982572563L138.15686274509804,143.21590293617325L139.64705882352942,140.6348076150902L142.62745098039215,140.6348076150902L144.11764705882354,143.21590293617328L142.62745098039215,145.7969982572563L144.11764705882354,148.37809357833933L147.0980392156863,148.37809357833933L148.58823529411762,150.9591888994224L147.0980392156863,153.5402842205054L144.11764705882354,153.5402842205054L142.62745098039215,156.12137954158845L144.11764705882354,158.7024748626715L147.0980392156863,158.7024748626715L148.58823529411765,156.12137954158848L151.56862745098042,156.12137954158848L153.0588235294118,158.70247486267155L156.03921568627453,158.70247486267155L157.52941176470594,156.12137954158854L156.03921568627456,153.54028422050544L157.52941176470597,150.95918889942243L160.50980392156868,150.95918889942243L162.00000000000009,153.5402842205055L160.50980392156868,156.12137954158854L162.00000000000009,158.70247486267158L164.9803921568628,158.70247486267158L166.4705882352942,156.12137954158857L169.45098039215696,156.12137954158857L170.94117647058832,158.70247486267164L173.92156862745108,158.70247486267164L175.41176470588246,156.12137954158862L173.9215686274511,153.54028422050553L170.94117647058832,153.54028422050553L169.450980392157,150.9591888994225L170.94117647058835,148.37809357833945L169.450980392157,145.7969982572564L166.47058823529423,145.7969982572564L164.98039215686285,148.37809357833942L162.0000000000001,148.37809357833942L160.50980392156873,145.79699825725635L162.00000000000014,143.21590293617334L164.98039215686285,143.21590293617334L166.47058823529426,140.63480761509032L164.98039215686288,138.05371229400728L162.00000000000017,138.05371229400728L160.50980392156876,135.47261697292421L162.00000000000017,132.89152165184117L160.5098039215688,130.3104263307581L157.52941176470605,130.3104263307581L156.03921568627467,132.89152165184115L157.52941176470605,135.47261697292421L156.03921568627464,138.05371229400723L153.05882352941188,138.05371229400723L151.56862745098053,135.47261697292416L148.58823529411777,135.47261697292416L147.09803921568636,138.0537122940072L144.11764705882365,138.0537122940072L142.62745098039224,135.47261697292413L144.11764705882368,132.8915216518411L147.09803921568638,132.8915216518411L148.5882352941178,130.31042633075808L147.0980392156864,127.72933100967502L148.5882352941178,125.14823568859201L151.56862745098059,125.14823568859201L153.0588235294119,127.72933100967506L156.0392156862747,127.72933100967506L157.52941176470608,125.14823568859205L156.0392156862747,122.56714036750897L153.0588235294119,122.56714036750897L151.56862745098059,119.98604504642593L153.05882352941194,117.4049497253429L156.03921568627473,117.4049497253429L157.52941176470614,114.82385440425989L156.03921568627476,112.24275908317681L157.52941176470614,109.6616637620938L160.5098039215689,109.6616637620938L162.00000000000028,112.24275908317685L160.50980392156887,114.82385440425989L162.00000000000026,117.40494972534295L164.98039215686302,117.40494972534295L166.4705882352944,114.82385440425993L169.45098039215716,114.82385440425993L170.94117647058854,117.40494972534299L173.92156862745134,117.40494972534299L175.41176470588272,114.82385440425998L173.92156862745136,112.24275908317689L170.94117647058857,112.24275908317689L169.4509803921572,109.66166376209384L170.9411764705886,107.08056844101084L169.45098039215722,104.49947311992776L166.47058823529446,104.49947311992776L164.98039215686305,107.08056844101078L162.0000000000003,107.08056844101078L160.5098039215689,104.49947311992771L162.00000000000034,101.9183777988447L164.98039215686308,101.9183777988447L166.47058823529449,99.33728247776169L164.9803921568631,96.75618715667862L166.47058823529449,94.17509183559561L169.45098039215725,94.17509183559561L170.94117647058863,96.75618715667868L173.92156862745142,96.75618715667868L175.4117647058828,94.17509183559565L173.92156862745145,91.59399651451258L170.94117647058866,91.59399651451258L169.45098039215728,89.01290119342951L170.9411764705887,86.4318058723465L173.92156862745148,86.4318058723465L175.41176470588283,83.85071055126349L173.92156862745145,81.26961523018043L175.41176470588286,78.68851990909741L178.39215686274562,78.68851990909741L179.882352941177,81.26961523018048L178.3921568627456,83.85071055126352L179.88235294117698,86.43180587234659L182.86274509803974,86.43180587234659L184.35294117647112,89.01290119342964L182.8627450980397,91.59399651451271L179.88235294117698,91.59399651451271L178.39215686274557,94.17509183559578L179.88235294117692,96.75618715667883L182.8627450980397,96.75618715667883L184.3529411764711,94.17509183559578L187.33333333333385,94.17509183559578L188.82352941176524,96.75618715667883L187.33333333333383,99.33728247776189L188.8235294117652,101.91837779884496L191.80392156862797,101.91837779884496L193.29411764705935,104.49947311992801L191.80392156862794,107.0805684410111L188.82352941176518,107.0805684410111L187.33333333333383,104.49947311992801L184.35294117647106,104.49947311992801L182.86274509803965,107.0805684410111L184.35294117647103,109.66166376209415L182.86274509803962,112.2427590831772L179.8823529411769,112.2427590831772L178.39215686274548,114.82385440426026L179.88235294117686,117.40494972534331L182.86274509803962,117.40494972534331L184.352941176471,114.82385440426026L187.33333333333377,114.82385440426026L188.82352941176515,117.40494972534331L191.8039215686279,117.40494972534331L193.2941176470593,114.82385440426026L191.80392156862794,112.2427590831772L193.29411764705932,109.66166376209415L196.2745098039221,109.66166376209415L197.76470588235347,112.2427590831772L196.2745098039221,114.82385440426026L197.76470588235344,117.40494972534331L200.7450980392162,117.40494972534331L202.23529411764756,114.82385440426026L205.2156862745103,114.82385440426026L206.7058823529417,117.40494972534331L209.68627450980443,117.40494972534331L211.1764705882358,114.82385440426026L209.68627450980443,112.2427590831772L206.7058823529417,112.2427590831772L205.2156862745103,109.66166376209415L206.7058823529417,107.0805684410111L209.68627450980443,107.0805684410111L211.1764705882358,104.49947311992801L209.68627450980443,101.91837779884496L211.1764705882358,99.33728247776189L214.15686274509855,99.33728247776189L215.6470588235299,101.91837779884496L214.15686274509855,104.49947311992801L215.6470588235299,107.0805684410111L218.6274509803927,107.0805684410111L220.11764705882405,109.66166376209415L218.6274509803927,112.2427590831772L215.6470588235299,112.2427590831772L214.15686274509855,114.82385440426026L215.6470588235299,117.40494972534331L218.6274509803927,117.40494972534331L220.11764705882405,114.82385440426026L223.09803921568678,114.82385440426026L224.58823529411816,117.40494972534331L227.56862745098087,117.40494972534331L229.05882352941225,114.82385440426026L227.56862745098087,112.2427590831772L229.05882352941225,109.66166376209415L232.03921568627504,109.66166376209415L233.5294117647064,112.2427590831772L232.03921568627504,114.82385440426026L233.5294117647064,117.40494972534331L236.50980392156913,117.40494972534331L238.0000000000005,114.82385440426026L240.98039215686322,114.82385440426026L242.47058823529466,117.40494972534331L245.45098039215736,117.40494972534331L246.94117647058874,114.82385440426026L245.45098039215736,112.2427590831772L242.47058823529466,112.2427590831772L240.98039215686322,109.66166376209415L242.47058823529466,107.0805684410111L240.98039215686322,104.49947311992801L238.0000000000005,104.49947311992801L236.50980392156913,107.0805684410111L233.5294117647064,107.0805684410111L232.03921568627504,104.49947311992801L233.5294117647064,101.91837779884496L236.50980392156913,101.91837779884496L238.0000000000005,99.33728247776189L236.50980392156913,96.75618715667883L233.5294117647064,96.75618715667883L232.03921568627504,94.17509183559578L233.5294117647064,91.59399651451271L232.03921568627504,89.01290119342964L229.05882352941225,89.01290119342964L227.56862745098087,91.59399651451271L229.05882352941225,94.17509183559578L227.56862745098087,96.75618715667883L224.58823529411816,96.75618715667883L223.09803921568678,94.17509183559578L220.11764705882405,94.17509183559578L218.6274509803927,96.75618715667883L215.6470588235299,96.75618715667883L214.15686274509855,94.17509183559578L215.6470588235299,91.59399651451271L218.6274509803927,91.59399651451271L220.11764705882405,89.01290119342964L218.6274509803927,86.43180587234659L220.11764705882405,83.85071055126352L223.09803921568678,83.85071055126352L224.58823529411816,86.43180587234659L227.56862745098087,86.43180587234659L229.05882352941225,83.85071055126352L227.56862745098087,81.26961523018048L224.58823529411816,81.26961523018048L223.09803921568678,78.68851990909741L224.58823529411816,76.10742458801434L223.09803921568678,73.52632926693128L220.11764705882405,73.52632926693128L218.6274509803927,76.10742458801434L215.6470588235299,76.10742458801434L214.15686274509855,73.52632926693128L215.6470588235299,70.94523394584822L218.6274509803927,70.94523394584822L220.11764705882405,68.36413862476516L218.6274509803927,65.78304330368209L215.6470588235299,65.78304330368209L214.15686274509855,63.20194798259904L215.6470588235299,60.62085266151598L214.15686274509855,58.039757340432914L211.1764705882358,58.039757340432914L209.68627450980443,60.62085266151598L211.1764705882358,63.20194798259904L209.68627450980443,65.78304330368209L206.7058823529417,65.78304330368209L205.2156862745103,68.36413862476516L206.7058823529417,70.94523394584822L209.68627450980443,70.94523394584822L211.1764705882358,73.52632926693128L209.68627450980443,76.10742458801434L206.7058823529417,76.10742458801434L205.2156862745103,73.52632926693128L202.23529411764756,73.52632926693128L200.7450980392162,76.10742458801434L197.7647058823534,76.10742458801434L196.27450980392206,73.52632926693128L197.76470588235344,70.94523394584822L196.2745098039221,68.36413862476516L193.2941176470593,68.36413862476516L191.8039215686279,70.94523394584822L193.2941176470593,73.52632926693128L191.8039215686279,76.10742458801434L188.82352941176512,76.10742458801434L187.33333333333374,73.52632926693128L184.35294117647098,73.52632926693128L182.8627450980396,76.10742458801434L179.88235294117686,76.10742458801434L178.39215686274545,73.52632926693128L179.88235294117686,70.94523394584822L182.86274509803962,70.94523394584822L184.352941176471,68.36413862476516L182.86274509803962,65.78304330368209L184.35294117647103,63.20194798259904L187.3333333333338,63.20194798259904L188.82352941176518,65.78304330368209L191.80392156862794,65.78304330368209L193.29411764705932,63.20194798259904L191.80392156862794,60.62085266151598L188.82352941176518,60.62085266151598L187.33333333333383,58.039757340432914L188.8235294117652,55.45866201934985L191.80392156862797,55.45866201934985L193.29411764705938,52.87756669826679L191.803921568628,50.29647137718373L193.29411764705938,47.715376056100666L196.27450980392217,47.715376056100666L197.76470588235352,50.29647137718373L196.27450980392214,52.87756669826679L197.7647058823535,55.45866201934985L200.7450980392163,55.45866201934985L202.23529411764764,52.87756669826679L205.21568627451038,52.87756669826679L206.70588235294179,55.45866201934985L209.68627450980452,55.45866201934985L211.17647058823587,52.87756669826679L209.68627450980452,50.29647137718373L206.70588235294179,50.29647137718373L205.21568627451038,47.715376056100666L206.70588235294179,45.134280735017605L205.21568627451038,42.55318541393454L202.23529411764764,42.55318541393454L200.7450980392163,45.134280735017605L197.7647058823535,45.134280735017605L196.27450980392214,42.55318541393454L197.76470588235352,39.97209009285149L200.7450980392163,39.97209009285149L202.23529411764764,37.39099477176842L200.7450980392163,34.80989945068536"
       id="path6" />
  </g>
</svg>
